<svg xmlns="http://www.w3.org/2000/svg" width="14.96" height="17.097" viewBox="0 0 14.96 17.097">
  <path id="Icon_awesome-calendar-alt" data-name="Icon awesome-calendar-alt" d="M0,15.494a1.6,1.6,0,0,0,1.6,1.6H13.357a1.6,1.6,0,0,0,1.6-1.6V6.411H0ZM10.686,8.949a.4.4,0,0,1,.4-.4h1.336a.4.4,0,0,1,.4.4v1.336a.4.4,0,0,1-.4.4H11.087a.4.4,0,0,1-.4-.4Zm0,4.274a.4.4,0,0,1,.4-.4h1.336a.4.4,0,0,1,.4.4v1.336a.4.4,0,0,1-.4.4H11.087a.4.4,0,0,1-.4-.4ZM6.411,8.949a.4.4,0,0,1,.4-.4H8.148a.4.4,0,0,1,.4.4v1.336a.4.4,0,0,1-.4.4H6.812a.4.4,0,0,1-.4-.4Zm0,4.274a.4.4,0,0,1,.4-.4H8.148a.4.4,0,0,1,.4.4v1.336a.4.4,0,0,1-.4.4H6.812a.4.4,0,0,1-.4-.4ZM2.137,8.949a.4.4,0,0,1,.4-.4H3.874a.4.4,0,0,1,.4.4v1.336a.4.4,0,0,1-.4.4H2.538a.4.4,0,0,1-.4-.4Zm0,4.274a.4.4,0,0,1,.4-.4H3.874a.4.4,0,0,1,.4.4v1.336a.4.4,0,0,1-.4.4H2.538a.4.4,0,0,1-.4-.4ZM13.357,2.137h-1.6V.534A.536.536,0,0,0,11.22,0H10.152a.536.536,0,0,0-.534.534v1.6H5.343V.534A.536.536,0,0,0,4.809,0H3.74a.536.536,0,0,0-.534.534v1.6H1.6A1.6,1.6,0,0,0,0,3.74v1.6H14.96V3.74A1.6,1.6,0,0,0,13.357,2.137Z" fill="#f84685"/>
</svg>
