<svg xmlns="http://www.w3.org/2000/svg" width="20.824" height="14.057" viewBox="0 0 20.824 14.057">
  <path id="Icon_zocial-email" data-name="Icon zocial-email" d="M.072,16.88V5.313q0-.02.06-.382L6.94,10.755.152,17.281a1.7,1.7,0,0,1-.08-.4Zm.9-12.752a.865.865,0,0,1,.341-.06H19.651a1.137,1.137,0,0,1,.361.06L13.185,9.972l-.9.723-1.787,1.466L8.707,10.695l-.9-.723ZM1,18.065,7.843,11.5l2.651,2.149L13.145,11.5l6.848,6.567a.964.964,0,0,1-.341.06H1.317A.91.91,0,0,1,1,18.065Zm13.053-7.31,6.787-5.824a1.2,1.2,0,0,1,.06.382V16.88a1.539,1.539,0,0,1-.06.4Z" transform="translate(-0.072 -4.068)" fill="#fff"/>
</svg>
